<?xml version="1.0" standalone="no"?><!DOCTYPE svg PUBLIC "-//W3C//DTD SVG 1.1//EN" "http://www.w3.org/Graphics/SVG/1.1/DTD/svg11.dtd"><svg t="1769862897629" class="icon" viewBox="0 0 1024 1024" version="1.1" xmlns="http://www.w3.org/2000/svg" p-id="51591" xmlns:xlink="http://www.w3.org/1999/xlink" width="200" height="200"><path d="M925.696 157.824c-171.392 0-302.72-49.28-413.696-157.824C400.96 108.608 269.632 157.824 98.304 157.824c0 282.88-58.24 688 413.696 852.48 471.872-164.48 413.696-569.6 413.696-852.48z m-146.432 208.64l-274.56 332.928a53.76 53.76 0 0 1-15.616 18.944 55.744 55.744 0 0 1-77.248-9.92L244.928 495.168a53.568 53.568 0 0 1 10.112-75.968 55.68 55.68 0 0 1 77.184 9.92l124.352 158.912 238.272-288.896c18.048-21.888 51.584-24.576 74.88-5.952 23.296 18.624 27.584 51.392 9.536 73.344z" fill="#00C08E" p-id="51592"></path></svg>