<?xml version="1.0" standalone="no"?><!DOCTYPE svg PUBLIC "-//W3C//DTD SVG 1.1//EN" "http://www.w3.org/Graphics/SVG/1.1/DTD/svg11.dtd"><svg t="1769862851805" class="icon" viewBox="0 0 1024 1024" version="1.1" xmlns="http://www.w3.org/2000/svg" p-id="47097" xmlns:xlink="http://www.w3.org/1999/xlink" width="200" height="200"><path d="M113.792 479.36H37.973333a37.632 37.632 0 0 1-37.930666-37.12c0-20.352 17.066667-37.034667 37.930666-37.034667h75.861334c20.821333 0 37.888 16.64 37.888 37.034667 0 20.48-17.066667 37.12-37.888 37.12zM231.381333 240.213333L178.261333 188.330667a35.242667 35.242667 0 0 1 0-51.882667 37.290667 37.290667 0 0 1 53.12 0l53.034667 51.882667a35.242667 35.242667 0 0 1 0 51.925333 37.205333 37.205333 0 0 1-53.034667 0V240.213333zM512 164.266667c-20.906667 0-37.973333-16.64-37.973333-37.034667V53.077333c0-20.437333 17.066667-37.12 37.973333-37.12 20.821333 0 37.973333 16.682667 37.973333 37.12v74.154667a37.632 37.632 0 0 1-37.973333 36.992z m-109.952 388.949333c0-20.437333-17.066667-37.12-37.888-37.12a37.632 37.632 0 0 0-37.973333 37.12v222.378667c0 20.394667 17.066667 37.034667 37.973333 37.034666 20.864 0 37.888-16.64 37.888-37.034666v-222.421334z m413.354667 352.426667h170.624c20.864 0 37.930667 16.64 37.930666 37.034666 0 20.352-17.066667 37.12-37.973333 37.12H37.973333a37.632 37.632 0 0 1-37.930666-37.12c0-20.352 17.066667-37.077333 37.930666-37.077333h170.666667v-370.688c0-163.072 136.533333-296.533333 303.402667-296.533333 166.869333 0 303.36 133.504 303.36 296.533333v370.688zM800.170667 240.213333c-13.226667 14.848-37.930667 14.848-53.077334 0a35.285333 35.285333 0 0 1 0-51.925333l53.12-51.882667a37.162667 37.162667 0 0 1 53.077334 0 35.242667 35.242667 0 0 1 0 51.882667l-53.12 51.925333z m185.856 239.061334h-75.861334a37.546667 37.546667 0 0 1-37.888-37.12 37.546667 37.546667 0 0 1 37.888-36.992h75.861334c20.864 0 37.930667 16.64 37.930666 37.034666 0 20.48-17.066667 37.12-37.973333 37.12z" fill="#F04943" p-id="47098"></path></svg>