<?xml version="1.0" standalone="no"?><!DOCTYPE svg PUBLIC "-//W3C//DTD SVG 1.1//EN" "http://www.w3.org/Graphics/SVG/1.1/DTD/svg11.dtd"><svg t="1769862816154" class="icon" viewBox="0 0 1024 1024" version="1.1" xmlns="http://www.w3.org/2000/svg" p-id="46022" xmlns:xlink="http://www.w3.org/1999/xlink" width="200" height="200"><path d="M512 66.56c-245.76 0-445.44 199.68-445.44 445.44s199.68 445.44 445.44 445.44 445.44-199.68 445.44-445.44-199.68-445.44-445.44-445.44zM445.44 299.008c0-36.864 29.696-66.56 66.56-66.56s66.56 29.696 66.56 66.56v252.928c0 36.864-29.696 66.56-66.56 66.56s-66.56-29.696-66.56-66.56V299.008z m66.56 509.952c-43.52 0-78.848-35.328-78.848-78.848s35.328-78.848 78.848-78.848 78.848 35.328 78.848 78.848S555.52 808.96 512 808.96z" fill="#FD2525" p-id="46023"></path></svg>