<?xml version="1.0" standalone="no"?><!DOCTYPE svg PUBLIC "-//W3C//DTD SVG 1.1//EN" "http://www.w3.org/Graphics/SVG/1.1/DTD/svg11.dtd"><svg t="1769851567606" class="icon" viewBox="0 0 1024 1024" version="1.1" xmlns="http://www.w3.org/2000/svg" p-id="9038" data-spm-anchor-id="a313x.search_index.0.i7.17343a81B1HKpT" xmlns:xlink="http://www.w3.org/1999/xlink" width="200" height="200"><path d="M989.09 605.09c-4.654 0-9.31-2.328-11.636-6.982l-116.364-325.818c-2.328-6.982 0-11.636 6.982-13.964 6.982-2.328 11.636 0 13.964 6.982l118.69 316.51s-2.328 20.946-6.982 23.272h-4.654zM267.636 605.09c-4.654 0-9.31-2.328-11.636-6.982L139.636 272.29c-2.328-6.982 0-11.636 6.982-13.964 6.982-2.328 11.636 0 13.964 6.982l118.69 316.51s-2.328 20.946-6.982 23.272h-4.654z" fill="#F6B545" p-id="9039"></path><path d="M930.91 279.272h-37.236c-48.872 0-95.418-13.964-137.31-37.236-62.836-37.236-144.29-41.89-211.782-9.31l-9.31-209.454C535.272 9.31 523.636 0 512 0s-23.272 9.31-23.272 23.272L479.418 230.4c-67.49-30.254-146.618-27.928-211.782 9.31-41.89 25.6-90.764 39.564-137.31 39.564H93.09c-13.964 0-23.272 9.31-23.272 23.272 0 13.964 9.31 23.272 23.272 23.272h37.236c55.854 0 111.71-16.29 160.582-44.218 55.854-32.582 128-32.582 183.854 2.328L442.18 907.638c-11.636 0-118.69 60.51-118.69 60.51-11.636 4.654-20.946 20.946-20.946 32.582S314.182 1024 325.818 1024h372.364c11.636 0 23.272-11.636 23.272-23.272s-9.31-27.928-20.946-32.582c0 0-104.728-60.51-118.69-60.51l-30.254-623.71c55.854-34.91 128-34.91 183.854-2.328 48.872 30.254 104.728 44.218 160.582 44.218h34.91c13.964 0 23.272-9.31 23.272-23.272 0-13.962-9.31-23.272-23.272-23.272z" fill="#C97629" p-id="9040"></path><path d="M125.672 581.818h153.6v27.928c0 74.472-58.182 134.982-128 134.982s-128-60.51-128-134.982v-27.928h102.4z" fill="#FFCB5B" p-id="9041" data-spm-anchor-id="a313x.search_index.0.i2.17343a81B1HKpT" class="selected"></path><path d="M700.51 968.146s-104.728-60.51-118.69-60.51L535.272 23.272c0-13.964-23.272-23.272-23.272 0v884.364l30.254 60.51c6.982 16.29-4.654 32.582-20.946 32.582H302.546c0 11.636 11.636 23.272 23.272 23.272h372.364c11.636 0 23.272-11.636 23.272-23.272s-9.308-27.928-20.944-32.582z" fill="#B06328" p-id="9042"></path><path d="M893.672 302.546c-53.528 0-104.728-13.964-148.946-41.89-30.254-18.618-67.49-27.928-102.4-27.928-39.564 0-79.128 11.636-111.71 32.582L512 279.272l-13.964 18.618c6.982 4.654 18.618 4.654 25.6 0l18.618-13.964c55.854-37.236 132.654-39.564 190.836-4.654 48.872 30.254 104.728 44.218 160.582 44.218h37.236c11.636 0 23.272-9.31 23.272-23.272h-60.51v2.328z" fill="#B06328" p-id="9043"></path><path d="M130.328 302.546c53.528 0 104.728-13.964 148.946-41.89 30.254-18.618 67.49-27.928 102.4-27.928 39.564 0 79.128 11.636 111.71 32.582l18.618 13.964 13.964 18.618c-6.982 4.654-18.618 4.654-25.6 0l-18.618-13.964c-55.854-37.236-132.654-39.564-190.836-4.654-48.872 30.254-104.728 46.546-160.582 46.546h-37.24c-11.636 0-23.272-9.31-23.272-23.272h60.51z" fill="#B06328" p-id="9044"></path><path d="M512 279.272m-69.818 0a69.818 69.818 0 1 0 139.636 0 69.818 69.818 0 1 0-139.636 0Z" fill="#FFCB5B" p-id="9045"></path><path d="M549.236 218.764c6.982 11.636 9.31 23.272 9.31 37.236 0 39.564-30.254 69.818-69.818 69.818-13.964 0-25.6-4.654-37.236-9.31 13.964 18.618 34.91 32.582 60.51 32.582 39.564 0 69.818-30.254 69.818-69.818-0.002-25.6-13.966-46.544-32.584-60.508z" fill="#F6B545" p-id="9046"></path><path d="M477.09 267.636m-11.636 0a11.636 11.636 0 1 0 23.272 0 11.636 11.636 0 1 0-23.272 0Z" fill="#FFE27A" p-id="9047"></path><path d="M34.91 605.09h-4.654c-4.654-2.328-6.982-23.272-6.982-23.272l116.364-318.836C141.964 256 148.946 253.672 153.6 256c6.982 2.328 9.31 9.31 6.982 13.964L44.218 595.782c0 6.982-4.654 9.308-9.308 9.308zM847.128 581.818h153.6v27.928c0 74.472-58.182 134.982-128 134.982s-128-60.51-128-134.982v-27.928h102.4z" fill="#FFCB5B" p-id="9048"></path><path d="M930.91 581.818v4.654c0 74.472-58.182 134.982-128 134.982h-2.328c20.946 13.964 44.218 23.272 72.146 23.272 69.818 0 128-60.51 128-134.982v-27.928h-69.818z" fill="#F6B545" p-id="9049"></path><path d="M756.364 605.09h-4.654c-6.982-2.328-6.982-23.272-6.982-23.272l116.364-318.836c2.328-6.982 9.31-9.31 13.964-6.982 6.982 2.328 9.31 9.31 6.982 13.964l-116.364 325.818c-0.002 6.982-4.656 9.308-9.31 9.308z" fill="#FFCB5B" p-id="9050"></path><path d="M849.454 628.364h-69.818c-6.982 0-11.636-4.654-11.636-11.636 0-6.982 4.654-11.636 11.636-11.636h69.818c6.982 0 11.636 4.654 11.636 11.636 0 6.982-4.654 11.636-11.636 11.636z" fill="#FFE27A" p-id="9051"></path><path d="M209.454 581.818v4.654c0 74.472-58.182 134.982-128 134.982h-2.328c20.946 13.964 44.218 23.272 72.146 23.272 69.818 0 128-60.51 128-134.982v-27.928h-69.818z" fill="#F6B545" p-id="9052" data-spm-anchor-id="a313x.search_index.0.i4.17343a81B1HKpT" class="selected"></path><path d="M128 628.364H58.182c-6.982 0-11.636-4.654-11.636-11.636 0-6.982 4.654-11.636 11.636-11.636H128c6.982 0 11.636 4.654 11.636 11.636 0 6.982-4.654 11.636-11.636 11.636z" fill="#FFE27A" p-id="9053" data-spm-anchor-id="a313x.search_index.0.i3.17343a81B1HKpT" class="selected"></path></svg>